Coordinates
version=1
nRows=6
nColumns=36
inDegrees=yes

Units are S.I. units (second, meters, Newtons, ...)
If the header above contains a line with 'inDegrees', this indicates whether rotational values are in degrees (yes) or radians (no).

endheader
time	pelvis_tilt	pelvis_list	pelvis_rotation	pelvis_tx	pelvis_ty	pelvis_tz	hip_flexion_r	hip_adduction_r	hip_rotation_r	knee_angle_r	knee_angle_r_beta	ankle_angle_r	subtalar_angle_r	mtp_angle_r	hip_flexion_l	hip_adduction_l	hip_rotation_l	knee_angle_l	knee_angle_l_beta	ankle_angle_l	subtalar_angle_l	mtp_angle_l	lumbar_extension	lumbar_bending	lumbar_rotation	arm_flex_r	arm_add_r	arm_rot_r	elbow_flex_r	pro_sup_r	arm_flex_l	arm_add_l	arm_rot_l	elbow_flex_l	pro_sup_l
     29.78333330	      9.21227509	      0.61359829	     -6.69093150	      0.55552545	      0.91279759	      0.73520019	    -22.41403848	     -0.27396804	      3.69668822	     17.81333315	      0.31090131	     20.74146359	     -3.81195146	     -7.49999987	     23.70945106	      1.72051723	      0.14737423	     33.84864270	      0.59077026	      6.24355362	    -11.11009216	     -7.49999987	    -19.84807469	     -1.53504192	      3.89434129	     22.61534859	    -16.43832217	      4.69643098	     48.21958141	     82.70249945	      1.52322401	     -7.94695972	      1.35537661	     16.30747901	     77.68244119
     29.80000000	      9.44316919	      0.77539538	     -6.72237940	      0.55620845	      0.91803976	      0.73535634	    -21.08387609	     -0.85818017	      2.99327833	     22.62701441	      0.39491590	     16.97000722	     -5.76175386	     -7.49999987	     22.20808642	      2.16675164	      0.34618770	     34.28574446	      0.59839913	      5.50486016	    -12.53392882	     -7.49999987	    -19.81260802	     -2.11733424	      3.42184539	     21.02560361	    -15.39843554	      4.62456151	     47.08324416	     81.87496031	      1.77648579	     -8.23726858	      1.91092369	     16.91139856	     76.88960724
     29.81666670	      9.26144170	      0.96830626	     -6.82693990	      0.55894719	      0.92687518	      0.73334591	    -18.48366479	     -1.52965318	      2.28912420	     28.63649863	      0.49980119	     11.24865447	     -8.12142274	     -7.49999987	     20.83496313	      2.60520940	      0.42409840	     34.19330220	      0.59678571	      5.19222000	    -13.60720232	     -7.49999987	    -19.26558925	     -2.60013478	      3.16771403	     19.16104918	    -14.30734450	      4.34458097	     45.25662781	     81.60059845	      2.34270321	     -8.46035598	      2.98181260	     17.40965798	     76.67958124
     29.83333330	      8.79184174	      1.29430315	     -7.09563577	      0.56448300	      0.93606052	      0.72912478	    -14.85276305	     -2.40554924	      1.80817131	     35.42707347	      0.61831908	      3.59163018	    -10.82499544	     -7.49999987	     19.35545080	      3.17116604	      0.35845560	     33.30292288	      0.58124565	      5.35606363	    -14.26310691	     -7.49999987	    -18.38888207	     -3.11174320	      3.15503527	     17.09360194	    -13.23825020	      3.90004810	     42.72680619	     80.94787946	      3.13990823	     -8.47992033	      4.23385736	     17.60003033	     76.13962387
     29.85000000	      8.24036764	      1.73078883	     -7.57622849	      0.56960529	      0.94182605	      0.72575689	    -10.69688938	     -3.39070316	      1.74460673	     42.33029665	      0.73880305	     -4.39355973	    -13.40711727	     -7.49999987	     17.63565492	      3.78403003	      0.00983796	     31.71023036	      0.55344793	      5.88131237	    -14.53939206	     -7.49999987	    -17.50460231	     -3.71629077	      3.25978499	     15.02598594	    -12.28086159	      3.35478047	     40.02897191	     81.26600681	      3.77999785	     -8.42003332	      5.09080312	     18.08997425	     76.47752029
     29.86666670	      7.74379550	      2.14033959	     -8.12620621	      0.57029470	      0.94110096	      0.72550341	     -6.47413338	     -4.20371781	      2.02400538	     48.72592013	      0.85042774	    -10.20883678	    -15.16607967	     -7.49999987	     15.75967830	      4.33407264	     -0.45154835	     29.77236356	      0.51962577	      6.72901371	    -14.46161734	     -7.49999987	    -16.71219979	     -4.22735161	      3.39859234	     13.40357033	    -11.34522136	      2.64634542	     36.92667976	     81.56731349	      4.64013080	     -8.33433831	      6.28604755	     18.57868090	     76.81218104
